{
  "asset": {
    "version": "2.0",
    "generator": "THREE.GLTFExporter"
  },
  "scenes": [
    {
      "name": "Scene",
      "nodes": [12]
    }
  ],
  "scene": 0,
  "nodes": [
    {
      "name": "mesh_0",
      "mesh": 0
    },
    {
      "name": "mesh_0_1",
      "mesh": 1
    },
    {
      "name": "mesh_0_2",
      "mesh": 2
    },
    {
      "name": "mesh_0_3",
      "mesh": 3
    },
    {
      "name": "mesh_0_4",
      "mesh": 4
    },
    {
      "name": "mesh_0_5",
      "mesh": 5
    },
    {
      "name": "mesh_0_6",
      "mesh": 6
    },
    {
      "name": "mesh_0_7",
      "mesh": 7
    },
    {
      "name": "mesh_0_8",
      "mesh": 8
    },
    {
      "name": "mesh_0_9",
      "mesh": 9
    },
    {
      "name": "mesh_0_10",
      "mesh": 10
    },
    {
      "children": [0, 1, 2, 3, 4, 5, 6, 7, 8, 9, 10]
    },
    {
      "matrix": [
        1, 0, 0, 0, 0, 1, 0, 0, 0, 0, 1, 0, 7.221098076443747, 0, 0, 1
      ],
      "name": "model.glb",
      "children": [11]
    }
  ],
  "bufferViews": [
    {
      "buffer": 0,
      "byteOffset": 0,
      "byteLength": 43680,
      "target": 34962,
      "byteStride": 12
    },
    {
      "buffer": 0,
      "byteOffset": 43680,
      "byteLength": 7280,
      "target": 34963
    },
    {
      "buffer": 0,
      "byteOffset": 50960,
      "byteLength": 21840,
      "target": 34962,
      "byteStride": 12
    },
    {
      "buffer": 0,
      "byteOffset": 72800,
      "byteLength": 21840,
      "target": 34962,
      "byteStride": 12
    },
    {
      "buffer": 0,
      "byteOffset": 94640,
      "byteLength": 9360,
      "target": 34963
    },
    {
      "buffer": 0,
      "byteOffset": 104000,
      "byteLength": 20424,
      "target": 34962,
      "byteStride": 12
    },
    {
      "buffer": 0,
      "byteOffset": 124424,
      "byteLength": 3404,
      "target": 34963
    },
    {
      "buffer": 0,
      "byteOffset": 127828,
      "byteLength": 7200,
      "target": 34962,
      "byteStride": 12
    },
    {
      "buffer": 0,
      "byteOffset": 135028,
      "byteLength": 1200,
      "target": 34963
    },
    {
      "buffer": 0,
      "byteOffset": 136228,
      "byteLength": 4296,
      "target": 34962,
      "byteStride": 12
    },
    {
      "buffer": 0,
      "byteOffset": 140524,
      "byteLength": 4296,
      "target": 34962,
      "byteStride": 12
    },
    {
      "buffer": 0,
      "byteOffset": 144820,
      "byteLength": 1728,
      "target": 34963
    },
    {
      "buffer": 0,
      "byteOffset": 146548,
      "byteLength": 9600,
      "target": 34962,
      "byteStride": 12
    },
    {
      "buffer": 0,
      "byteOffset": 156148,
      "byteLength": 1600,
      "target": 34963
    },
    {
      "buffer": 0,
      "byteOffset": 157748,
      "byteLength": 5712,
      "target": 34962,
      "byteStride": 12
    },
    {
      "buffer": 0,
      "byteOffset": 163460,
      "byteLength": 5712,
      "target": 34962,
      "byteStride": 12
    },
    {
      "buffer": 0,
      "byteOffset": 169172,
      "byteLength": 2304,
      "target": 34963
    },
    {
      "buffer": 0,
      "byteOffset": 171476,
      "byteLength": 9000,
      "target": 34962,
      "byteStride": 12
    },
    {
      "buffer": 0,
      "byteOffset": 180476,
      "byteLength": 1500,
      "target": 34963
    },
    {
      "buffer": 0,
      "byteOffset": 181976,
      "byteLength": 5304,
      "target": 34962,
      "byteStride": 12
    },
    {
      "buffer": 0,
      "byteOffset": 187280,
      "byteLength": 5304,
      "target": 34962,
      "byteStride": 12
    },
    {
      "buffer": 0,
      "byteOffset": 192584,
      "byteLength": 2160,
      "target": 34963
    },
    {
      "buffer": 0,
      "byteOffset": 194744,
      "byteLength": 1872,
      "target": 34962,
      "byteStride": 12
    },
    {
      "buffer": 0,
      "byteOffset": 196616,
      "byteLength": 312,
      "target": 34963
    },
    {
      "buffer": 0,
      "byteOffset": 196928,
      "byteLength": 11808,
      "target": 34962,
      "byteStride": 12
    },
    {
      "buffer": 0,
      "byteOffset": 208736,
      "byteLength": 11808,
      "target": 34962,
      "byteStride": 12
    },
    {
      "buffer": 0,
      "byteOffset": 220544,
      "byteLength": 4896,
      "target": 34963
    }
  ],
  "buffers": [
    {
      "byteLength": 225440,
      "uri": "data:application/octet-stream;base64,"
    }
  ],
  "accessors": [
    {
      "bufferView": 0,
      "componentType": 5126,
      "count": 3640,
      "max": [8.285332679748535, 12.096332550048828, 8.072333335876465],
      "min": [-7.334667205810547, 11.469332695007324, -9.864666938781738],
      "type": "VEC3"
    },
    {
      "bufferView": 1,
      "componentType": 5123,
      "count": 3640,
      "max": [3639],
      "min": [0],
      "type": "SCALAR"
    },
    {
      "bufferView": 2,
      "componentType": 5126,
      "count": 1820,
      "max": [0.7236081957817078, 0.7278017997741699, 0.9961845278739929],
      "min": [-0.7236081957817078, -0.7278017997741699, -0.9961845278739929],
      "type": "VEC3"
    },
    {
      "bufferView": 3,
      "componentType": 5126,
      "count": 1820,
      "max": [8.285674095153809, 12.09620475769043, 8.072280883789062],
      "min": [-7.335000038146973, 11.468881607055664, -9.864999771118164],
      "type": "VEC3"
    },
    {
      "bufferView": 4,
      "componentType": 5125,
      "count": 2340,
      "max": [1819],
      "min": [0],
      "type": "SCALAR"
    },
    {
      "bufferView": 5,
      "componentType": 5126,
      "count": 1702,
      "max": [6.37233304977417, 12.036333084106445, 5.785333156585693],
      "min": [-5.40766716003418, 8.715332984924316, -7.923666954040527],
      "type": "VEC3"
    },
    {
      "bufferView": 6,
      "componentType": 5123,
      "count": 1702,
      "max": [1701],
      "min": [0],
      "type": "SCALAR"
    },
    {
      "bufferView": 7,
      "componentType": 5126,
      "count": 600,
      "max": [7.638332843780518, 12.028332710266113, 7.797332763671875],
      "min": [-7.080667018890381, 11.448332786560059, -9.302666664123535],
      "type": "VEC3"
    },
    {
      "bufferView": 8,
      "componentType": 5123,
      "count": 600,
      "max": [599],
      "min": [0],
      "type": "SCALAR"
    },
    {
      "bufferView": 9,
      "componentType": 5126,
      "count": 358,
      "max": [0.7236081957817078, 0.7236081957817078, 1],
      "min": [-0.7236081957817078, -0.7236081957817078, -1],
      "type": "VEC3"
    },
    {
      "bufferView": 10,
      "componentType": 5126,
      "count": 358,
      "max": [7.638644218444824, 12.028326034545898, 7.7974853515625],
      "min": [-7.081005096435547, 11.448080062866211, -9.30226993560791],
      "type": "VEC3"
    },
    {
      "bufferView": 11,
      "componentType": 5125,
      "count": 432,
      "max": [357],
      "min": [0],
      "type": "SCALAR"
    },
    {
      "bufferView": 12,
      "componentType": 5126,
      "count": 800,
      "max": [6.431333065032959, 11.869333267211914, 5.845333099365234],
      "min": [-5.27066707611084, 7.440332889556885, -7.983666896820068],
      "type": "VEC3"
    },
    {
      "bufferView": 13,
      "componentType": 5123,
      "count": 800,
      "max": [799],
      "min": [0],
      "type": "SCALAR"
    },
    {
      "bufferView": 14,
      "componentType": 5126,
      "count": 476,
      "max": [0.7236081957817078, 0.7236081957817078, 1],
      "min": [-0.7236081957817078, -0.7236081957817078, -1],
      "type": "VEC3"
    },
    {
      "bufferView": 15,
      "componentType": 5126,
      "count": 476,
      "max": [6.431074142456055, 11.869579315185547, 5.8454484939575195],
      "min": [-5.270198345184326, 7.440000057220459, -7.984125137329102],
      "type": "VEC3"
    },
    {
      "bufferView": 16,
      "componentType": 5125,
      "count": 576,
      "max": [475],
      "min": [0],
      "type": "SCALAR"
    },
    {
      "bufferView": 17,
      "componentType": 5126,
      "count": 750,
      "max": [7.601333141326904, 12.006333351135254, 7.387332916259766],
      "min": [-6.642666816711426, 11.35433292388916, -9.26966667175293],
      "type": "VEC3"
    },
    {
      "bufferView": 18,
      "componentType": 5123,
      "count": 750,
      "max": [749],
      "min": [0],
      "type": "SCALAR"
    },
    {
      "bufferView": 19,
      "componentType": 5126,
      "count": 442,
      "max": [0.7236081957817078, 0.7236081957817078, 0.9977409839630127],
      "min": [-0.7236081957817078, -0.7236081957817078, -0.9977409839630127],
      "type": "VEC3"
    },
    {
      "bufferView": 20,
      "componentType": 5126,
      "count": 442,
      "max": [7.6014204025268555, 12.006430625915527, 7.386932373046875],
      "min": [-6.643083572387695, 11.353926658630371, -9.269426345825195],
      "type": "VEC3"
    },
    {
      "bufferView": 21,
      "componentType": 5125,
      "count": 540,
      "max": [441],
      "min": [0],
      "type": "SCALAR"
    },
    {
      "bufferView": 22,
      "componentType": 5126,
      "count": 156,
      "max": [8.611332893371582, 11.869333267211914, 6.571332931518555],
      "min": [-6.757667064666748, 7.440332889556885, -9.48566722869873],
      "type": "VEC3"
    },
    {
      "bufferView": 23,
      "componentType": 5123,
      "count": 156,
      "max": [155],
      "min": [0],
      "type": "SCALAR"
    },
    {
      "bufferView": 24,
      "componentType": 5126,
      "count": 984,
      "max": [0.7236081957817078, 0.7236081957817078, 1],
      "min": [-0.7236081957817078, -0.7236081957817078, -1],
      "type": "VEC3"
    },
    {
      "bufferView": 25,
      "componentType": 5126,
      "count": 984,
      "max": [6.371954917907715, 10.764922142028809, 5.785233497619629],
      "min": [-5.211078643798828, 8.715447425842285, -7.923911094665527],
      "type": "VEC3"
    },
    {
      "bufferView": 26,
      "componentType": 5125,
      "count": 1224,
      "max": [983],
      "min": [0],
      "type": "SCALAR"
    }
  ],
  "materials": [
    {
      "pbrMetallicRoughness": {
        "baseColorFactor": [0, 1, 1, 1],
        "metallicFactor": 0.5,
        "roughnessFactor": 0.5
      }
    },
    {
      "pbrMetallicRoughness": {
        "baseColorFactor": [0, 1, 1, 1],
        "metallicFactor": 1,
        "roughnessFactor": 1
      }
    },
    {
      "pbrMetallicRoughness": {
        "baseColorFactor": [0, 1, 0, 1],
        "metallicFactor": 0.5,
        "roughnessFactor": 0.5
      }
    },
    {
      "pbrMetallicRoughness": {
        "baseColorFactor": [1, 0.6230000257492065, 0.49799999594688416, 1],
        "metallicFactor": 0.5,
        "roughnessFactor": 0.5
      }
    },
    {
      "pbrMetallicRoughness": {
        "baseColorFactor": [1, 0.6230000257492065, 0.49799999594688416, 1],
        "metallicFactor": 1,
        "roughnessFactor": 1
      }
    },
    {
      "pbrMetallicRoughness": {
        "baseColorFactor": [1, 0, 0, 1],
        "metallicFactor": 0.5,
        "roughnessFactor": 0.5
      }
    },
    {
      "pbrMetallicRoughness": {
        "baseColorFactor": [1, 0, 0, 1],
        "metallicFactor": 1,
        "roughnessFactor": 1
      }
    },
    {
      "pbrMetallicRoughness": {
        "baseColorFactor": [0.7490000128746033, 0, 1, 1],
        "metallicFactor": 0.5,
        "roughnessFactor": 0.5
      }
    },
    {
      "pbrMetallicRoughness": {
        "baseColorFactor": [0.7490000128746033, 0, 1, 1],
        "metallicFactor": 1,
        "roughnessFactor": 1
      }
    },
    {
      "pbrMetallicRoughness": {
        "metallicFactor": 0.5,
        "roughnessFactor": 0.5
      }
    },
    {
      "pbrMetallicRoughness": {
        "baseColorFactor": [0, 1, 0, 1],
        "metallicFactor": 1,
        "roughnessFactor": 1
      }
    }
  ],
  "meshes": [
    {
      "primitives": [
        {
          "mode": 1,
          "attributes": {
            "POSITION": 0,
            "_FEATURE_ID_0": 0
          },
          "indices": 1,
          "material": 0,
          "extensions": {
            "EXT_mesh_features": {
              "featureIds": [
                {
                  "featureCount": 3640,
                  "attribute": 0
                }
              ]
            }
          }
        }
      ]
    },
    {
      "primitives": [
        {
          "mode": 4,
          "attributes": {
            "NORMAL": 2,
            "POSITION": 3,
            "_FEATURE_ID_0": 2
          },
          "indices": 4,
          "material": 1,
          "extensions": {
            "EXT_mesh_features": {
              "featureIds": [
                {
                  "featureCount": 2340,
                  "attribute": 0
                }
              ]
            }
          }
        }
      ]
    },
    {
      "primitives": [
        {
          "mode": 1,
          "attributes": {
            "POSITION": 5,
            "_FEATURE_ID_0": 5
          },
          "indices": 6,
          "material": 2,
          "extensions": {
            "EXT_mesh_features": {
              "featureIds": [
                {
                  "featureCount": 1702,
                  "attribute": 0
                }
              ]
            }
          }
        }
      ]
    },
    {
      "primitives": [
        {
          "mode": 1,
          "attributes": {
            "POSITION": 7,
            "_FEATURE_ID_0": 7
          },
          "indices": 8,
          "material": 3,
          "extensions": {
            "EXT_mesh_features": {
              "featureIds": [
                {
                  "featureCount": 600,
                  "attribute": 0
                }
              ]
            }
          }
        }
      ]
    },
    {
      "primitives": [
        {
          "mode": 4,
          "attributes": {
            "NORMAL": 9,
            "POSITION": 10,
            "_FEATURE_ID_0": 9
          },
          "indices": 11,
          "material": 4,
          "extensions": {
            "EXT_mesh_features": {
              "featureIds": [
                {
                  "featureCount": 432,
                  "attribute": 0
                }
              ]
            }
          }
        }
      ]
    },
    {
      "primitives": [
        {
          "mode": 1,
          "attributes": {
            "POSITION": 12,
            "_FEATURE_ID_0": 12
          },
          "indices": 13,
          "material": 5,
          "extensions": {
            "EXT_mesh_features": {
              "featureIds": [
                {
                  "featureCount": 800,
                  "attribute": 0
                }
              ]
            }
          }
        }
      ]
    },
    {
      "primitives": [
        {
          "mode": 4,
          "attributes": {
            "NORMAL": 14,
            "POSITION": 15,
            "_FEATURE_ID_0": 14
          },
          "indices": 16,
          "material": 6,
          "extensions": {
            "EXT_mesh_features": {
              "featureIds": [
                {
                  "featureCount": 576,
                  "attribute": 0
                }
              ]
            }
          }
        }
      ]
    },
    {
      "primitives": [
        {
          "mode": 1,
          "attributes": {
            "POSITION": 17,
            "_FEATURE_ID_0": 17
          },
          "indices": 18,
          "material": 7,
          "extensions": {
            "EXT_mesh_features": {
              "featureIds": [
                {
                  "featureCount": 750,
                  "attribute": 0
                }
              ]
            }
          }
        }
      ]
    },
    {
      "primitives": [
        {
          "mode": 4,
          "attributes": {
            "NORMAL": 19,
            "POSITION": 20,
            "_FEATURE_ID_0": 19
          },
          "indices": 21,
          "material": 8,
          "extensions": {
            "EXT_mesh_features": {
              "featureIds": [
                {
                  "featureCount": 540,
                  "attribute": 0
                }
              ]
            }
          }
        }
      ]
    },
    {
      "primitives": [
        {
          "mode": 1,
          "attributes": {
            "POSITION": 22,
            "_FEATURE_ID_0": 22
          },
          "indices": 23,
          "material": 9,
          "extensions": {
            "EXT_mesh_features": {
              "featureIds": [
                {
                  "featureCount": 156,
                  "attribute": 0
                }
              ]
            }
          }
        }
      ]
    },
    {
      "primitives": [
        {
          "mode": 4,
          "attributes": {
            "NORMAL": 24,
            "POSITION": 25,
            "_FEATURE_ID_0": 25
          },
          "indices": 26,
          "material": 10,
          "extensions": {
            "EXT_mesh_features": {
              "featureIds": [
                {
                  "featureCount": 1224,
                  "attribute": 0
                }
              ]
            }
          }
        }
      ]
    }
  ],
  "extensionsUsed": ["EXT_mesh_features"]
}
